<svg xmlns="http://www.w3.org/2000/svg" width="24" height="24" viewBox="0 0 24 24" fill="none"><path d="M15.9347 19.677V4.09474H14.7329V19.677V20.8806H15.9347H24V19.677H15.9347Z" fill="#EE7D0B"/><path d="M14.3787 11.6821H4.01462V12.461H14.3787V11.6821Z" fill="#1F459C"/><path d="M11.4782 12.7676H4.01462V13.5466H11.4782V12.7676Z" fill="#EE7D0B"/><path d="M8.7548 13.8532H4.01462V14.6321H8.7548V13.8532Z" fill="#1F459C"/><path d="M7.26933 14.9368H4.01462V15.7158H7.26933V14.9368Z" fill="#EE7D0B"/><path d="M11.4782 10.5985H4.01462V11.3774H11.4782V10.5985Z" fill="#EE7D0B"/><path d="M8.7548 9.51294H4.01462V10.2919H8.7548V9.51294Z" fill="#1F459C"/><path d="M7.26933 8.4274H4.01462V9.20632H7.26933V8.4274Z" fill="#EE7D0B"/><path d="M13.7694 22.8803C12.2445 22.88 10.7371 22.5557 9.34698 21.9289C7.95689 21.302 6.71584 20.387 5.70605 19.2444C4.69626 18.1017 3.94076 16.7576 3.48961 15.301C3.03845 13.8444 2.90193 12.3085 3.0891 10.7952C3.27626 9.2818 3.78284 7.82548 4.57527 6.52266C5.3677 5.21984 6.42789 4.10026 7.68563 3.23808C8.94337 2.37589 10.3699 1.79078 11.8709 1.52149C13.3718 1.25221 14.9128 1.3049 16.3918 1.67609C14.7121 1.06188 12.909 0.862029 11.1356 1.09349C9.36216 1.32494 7.67076 1.98088 6.20497 3.00561C4.73918 4.03034 3.54227 5.39362 2.71586 6.9797C1.88944 8.56579 1.45792 10.3279 1.45792 12.1163C1.45792 13.9048 1.88944 15.6669 2.71586 17.253C3.54227 18.839 4.73918 20.2023 6.20497 21.227C7.67076 22.2518 9.36216 22.9077 11.1356 23.1392C12.909 23.3706 14.7121 23.1708 16.3918 22.5566C15.5343 22.7722 14.6535 22.8809 13.7694 22.8803Z" fill="#1F459C"/><path d="M1.09696 12.122C1.10388 10.1808 1.5905 8.27131 2.51352 6.5635C3.43653 4.85568 4.76733 3.40247 6.38754 2.33313C2.61291 4.06047 0 7.79512 0 12.122C0 16.449 2.61291 20.1836 6.38754 21.9129C4.7673 20.8431 3.43651 19.3895 2.51352 17.6814C1.59052 15.9733 1.10391 14.0636 1.09696 12.122Z" fill="#EE7D0B"/></svg>
